HIERARCHY
ROOT Hips
{
	OFFSET 0.00000 0.00000 0.00000
	CHANNELS 6 Xposition Yposition Zposition Zrotation Yrotation Xrotation 
	JOINT LHipJoint
	{
		OFFSET 0 0 0
		CHANNELS 3 Zrotation Yrotation Xrotation
		JOINT LeftHip
		{
			OFFSET 1.55766 -1.60504 1.11378
			CHANNELS 3 Zrotation Yrotation Xrotation
			JOINT LeftKnee
			{
				OFFSET 2.29047 -6.29302 0.00000
				CHANNELS 3 Zrotation Yrotation Xrotation
				JOINT LeftAnkle
				{
					OFFSET 2.52265 -6.93093 0.00000
					CHANNELS 3 Zrotation Yrotation Xrotation
					JOINT LeftToe
					{
						OFFSET 0.17633 -0.48446 2.02656
						CHANNELS 3 Zrotation Yrotation Xrotation
						End Site
						{
							OFFSET 0.00000 -0.00000 1.04989
						}
					}
				}
			}
		}
	}
	JOINT RHipJoint
	{
		OFFSET 0 0 0
		CHANNELS 3 Zrotation Yrotation Xrotation
		JOINT RightHip
		{
			OFFSET -1.48599 -1.60504 1.11378
			CHANNELS 3 Zrotation Yrotation Xrotation
			JOINT RightKnee
			{
				OFFSET -2.27280 -6.24448 0.00000
				CHANNELS 3 Zrotation Yrotation Xrotation
				JOINT RightAnkle
				{
					OFFSET -2.50834 -6.89161 0.00000
					CHANNELS 3 Zrotation Yrotation Xrotation
					JOINT RightToe
					{
						OFFSET -0.26967 -0.74090 2.08741
						CHANNELS 3 Zrotation Yrotation Xrotation
						End Site
						{
							OFFSET -0.00000 -0.00000 1.10614
						}
					}
				}
			}
		}
	}
	JOINT lowerback
	{
		OFFSET 0 0 0
		CHANNELS 3 Zrotation Yrotation Xrotation
		JOINT Chest
		{
			OFFSET 0.06481 2.02437 -0.08472
			CHANNELS 3 Zrotation Yrotation Xrotation
			JOINT Chest2
			{
				OFFSET 0.00015 1.96711 0.18069
				CHANNELS 3 Zrotation Yrotation Xrotation
				JOINT lowerneck
				{
					OFFSET 0 0 0
					CHANNELS 3 Zrotation Yrotation Xrotation
					JOINT Neck
					{
						OFFSET -0.29961 1.68293 -0.13041
						CHANNELS 3 Zrotation Yrotation Xrotation
						JOINT Head
						{
							OFFSET 0.59697 1.61501 -0.14669
							CHANNELS 3 Zrotation Yrotation Xrotation
							End Site
							{
								OFFSET 0.22973 1.74906 -0.10148
							}
						}
					}
				}
				JOINT LeftCollar
				{
					OFFSET 0 0 0
					CHANNELS 3 Zrotation Yrotation Xrotation
					JOINT LeftShoulder
					{
						OFFSET 3.37968 1.02893 0.31147
CHANNELS 3 Zrotation Xrotation Yrotation
						JOINT LeftElbow
						{
OFFSET 0 -5.198070 -0.000000
CHANNELS 3 Zrotation Xrotation Yrotation
							JOINT LeftWrist
							{
OFFSET 0 -3.093700 -0.000000
CHANNELS 3 Zrotation Xrotation Yrotation
								JOINT lhand
								{
									OFFSET 0 0 0
CHANNELS 3 Zrotation Xrotation Yrotation
									JOINT LFingers
									{
OFFSET 0 -0.672630 -0.000000
CHANNELS 3 Zrotation Xrotation Yrotation
										End Site
										{
OFFSET 0 -0.542290 -0.000000
										}
									}
								}
								JOINT LThumb
								{
OFFSET 0 0.000000 0.000000
CHANNELS 3 Zrotation Xrotation Yrotation
									End Site
									{
OFFSET 0 -0.550570 0.550570
									}
								}
							}
						}
					}
				}
				JOINT RightCollar
				{
					OFFSET 0 0 0
					CHANNELS 3 Zrotation Yrotation Xrotation
					JOINT RightShoulder
					{
						OFFSET -3.38254 0.96355 -0.16120
CHANNELS 3 Zrotation Xrotation Yrotation
						JOINT RightElbow
						{
OFFSET 0 -5.452220 -0.000000
CHANNELS 3 Zrotation Xrotation Yrotation
							JOINT RightWrist
							{
OFFSET 0 -3.012840 -0.000000
CHANNELS 3 Zrotation Xrotation Yrotation
								JOINT rhand
								{
									OFFSET 0 0 0
CHANNELS 3 Zrotation Xrotation Yrotation
									JOINT RFingers
									{
OFFSET 0 -0.622300 -0.000000
CHANNELS 3 Zrotation Xrotation Yrotation
										End Site
										{
OFFSET 0 -0.501710 -0.000000
										}
									}
								}
								JOINT RThumb
								{
OFFSET 0 0.000000 0.000000
CHANNELS 3 Zrotation Xrotation Yrotation
									End Site
									{
OFFSET 0 -0.509370 0.509370
									}
								}
							}
						}
					}
				}
			}
		}
	}
}
MOTION
Frames: 7
Frame Time: 0.008333333333333333
4.766400 15.568700 38.551500 -178.973000 -1.414400 -165.451000 0.000000 0.000000 0.000000 -21.895600 -1.675300 -25.273700 2.675100 10.149500 29.462300 0.754600 -17.927600 -18.715500 0.101300 -2.052800 -5.651600 0.000000 0.000000 0.000000 14.201800 21.964900 -25.960300 -7.766600 -15.944900 51.717500 0.117900 15.703400 -9.733700 -1.762700 8.353300 -23.792500 0.255100 3.446500 -4.401200 -2.203200 3.995600 -6.683100 -2.373600 1.691700 -4.268400 -28.812000 -3.908000 5.364400 37.306800 -12.391600 7.074400 18.781300 -7.787700 5.492900 0.000000 -0.000000 0.000000 6.458300 10.119300 -49.167300 18.123400 -28.314800 4.607600 20.046500 -37.885800 15.113700 0.000000 0.000000 0.000000 -7.125000 0.000000 0.000000 -5.088700 13.985500 -3.723100 0.000000 -0.000000 0.000000 2.853700 6.204700 13.943200 -13.491800 -22.003600 -2.634700 -12.364100 29.652200 3.053200 0.000000 0.000000 0.000000 7.125000 0.000000 -0.000000 11.531000 32.947200 3.465600
4.751152 15.560931 38.522024 -179.079701 -1.302332 -165.490928 0.000000 0.000000 0.000000 -22.098314 -1.482384 -25.050480 2.645729 10.098149 29.295177 0.748419 -18.048308 -18.725205 0.091357 -1.948770 -5.364152 0.000000 0.000000 0.000000 14.131941 21.348198 -27.606496 -8.317141 -16.346489 53.695328 -0.026353 14.751555 -10.654833 -1.816561 8.471875 -24.157382 0.064041 3.375583 -4.048491 -2.291868 3.908441 -6.644466 -2.379403 1.657472 -4.436921 -29.074890 -4.328411 6.431433 37.563303 -13.330919 6.403529 18.877007 -8.393324 5.523084 0.000000 0.000000 0.000000 6.563427 10.513313 -48.014212 18.082782 -28.263065 4.588379 20.397369 -38.638825 15.376311 0.000000 0.000000 0.000000 -7.125000 0.000000 0.000000 -4.863682 13.670807 -3.589547 0.000000 0.000000 0.000000 3.131045 6.251771 14.135138 -13.557612 -22.098688 -2.659405 -14.986314 29.147736 0.291061 0.000000 0.000000 0.000000 7.125000 0.000000 0.000000 9.127232 30.213850 3.332361
4.734451 15.561413 38.485308 -179.235524 -1.232572 -165.545045 0.000000 0.000000 0.000000 -22.368775 -1.286127 -24.700249 2.592354 10.003833 28.989155 0.739411 -18.157975 -18.709864 0.083692 -1.866114 -5.135783 0.000000 0.000000 0.000000 14.023409 20.713040 -29.186465 -8.735985 -16.633939 55.171099 -0.098054 14.241728 -11.108134 -1.726601 8.271790 -23.542616 -0.173967 3.254282 -3.706938 -2.359186 3.760696 -6.546377 -2.333671 1.599765 -4.543501 -29.203691 -4.691512 7.480931 37.779478 -14.040694 5.486936 18.927334 -8.861817 5.385056 0.000000 0.000000 0.000000 6.555416 10.731718 -46.713816 17.979768 -28.131194 4.539705 20.724830 -39.367261 15.180023 0.000000 0.000000 0.000000 -7.125000 0.000000 0.000000 -4.633406 13.841032 -3.401863 0.000000 0.000000 0.000000 3.355204 6.188881 14.467269 -13.714106 -22.324470 -2.718639 -13.836955 28.914555 0.785971 0.000000 0.000000 0.000000 7.125000 0.000000 0.000000 10.081557 30.697778 3.566529
4.719413 15.560282 38.446886 -179.363219 -1.191645 -165.589484 0.000000 0.000000 0.000000 -22.591667 -1.125871 -24.343901 2.537464 9.905650 28.671790 0.729442 -18.251246 -18.681463 0.077028 -1.790259 -4.926474 0.000000 0.000000 0.000000 13.978205 20.088579 -30.706546 -9.089187 -16.864763 56.397992 -0.163101 13.750298 -11.516783 -1.704028 8.220304 -23.385291 -0.404809 3.131411 -3.377655 -2.405517 3.600646 -6.508198 -2.270300 1.531895 -4.707234 -29.269835 -5.005791 8.764054 37.923436 -14.704069 4.524846 18.939842 -9.320086 5.157701 0.000000 0.000000 0.000000 6.522455 11.055446 -45.310212 17.829121 -27.937832 4.468888 20.833747 -39.738061 14.940757 0.000000 0.000000 0.000000 -7.125000 0.000000 0.000000 -4.548363 14.081153 -3.315696 0.000000 0.000000 0.000000 3.555810 6.267430 14.851125 -13.871377 -22.550531 -2.778561 -12.860806 28.612715 1.201187 0.000000 0.000000 0.000000 7.125000 0.000000 0.000000 10.894331 31.099930 3.761377
4.704560 15.558773 38.404865 -179.450646 -1.177667 -165.624401 0.000000 0.000000 0.000000 -22.758697 -1.006502 -23.988153 2.488728 9.817347 28.387195 0.726462 -18.313617 -18.688474 0.071591 -1.726263 -4.749709 0.000000 0.000000 0.000000 14.010711 19.473428 -32.119981 -9.336779 -17.019406 57.247404 -0.209061 13.385965 -11.805672 -1.694576 8.198565 -23.318901 -0.598329 2.994776 -3.076348 -2.425018 3.425937 -6.439596 -2.195716 1.458011 -4.822032 -29.341476 -5.350596 9.924336 38.074274 -15.371383 3.562752 18.955492 -9.767406 4.963882 0.000000 0.000000 0.000000 6.447915 11.275766 -43.860366 17.626949 -27.676736 4.374633 20.845201 -39.987484 14.716725 0.000000 0.000000 0.000000 -7.125000 0.000000 0.000000 -4.530103 14.316440 -3.279638 0.000000 0.000000 0.000000 3.716797 6.289004 15.282362 -14.031253 -22.779351 -2.840255 -11.920357 28.279572 1.592964 0.000000 0.000000 0.000000 7.125000 0.000000 0.000000 11.683868 31.471123 3.937104
4.690238 15.556889 38.359223 -179.487334 -1.192309 -165.640861 0.000000 0.000000 0.000000 -22.855861 -0.937779 -23.652577 2.449410 9.745375 28.155934 0.732023 -18.344426 -18.742672 0.068289 -1.686002 -4.638570 0.000000 0.000000 0.000000 14.120691 18.877502 -33.478010 -9.501479 -17.119750 57.808568 -0.243687 13.156602 -12.052427 -1.698022 8.206609 -23.343365 -0.748427 2.855134 -2.809788 -2.420041 3.247111 -6.375317 -2.117014 1.380767 -4.920058 -29.469086 -5.674728 11.011036 38.288281 -16.031242 2.656469 19.026417 -10.213760 4.814118 0.000000 0.000000 0.000000 6.349316 11.465864 -42.401908 17.374005 -27.348032 4.257843 20.776808 -40.096416 14.503915 0.000000 0.000000 0.000000 -7.125000 0.000000 0.000000 -4.566827 14.548511 -3.283800 0.000000 0.000000 0.000000 3.844693 6.328159 15.746811 -14.191117 -23.007294 -2.902469 -11.219390 27.905701 1.800687 0.000000 0.000000 0.000000 7.125000 0.000000 0.000000 12.263892 31.660515 4.083755
4.676469 15.554217 38.309958 -179.474798 -1.221108 -165.637633 0.000000 0.000000 0.000000 -22.887469 -0.918274 -23.335630 2.418516 9.688215 27.972831 0.748391 -18.327387 -18.851284 0.067757 -1.678931 -4.619120 0.000000 0.000000 0.000000 14.304740 18.312678 -34.772038 -9.574496 -17.163480 58.056322 -0.267461 13.042762 -12.246134 -1.697846 8.206046 -23.341625 -0.856123 2.721645 -2.575095 -2.395952 3.076004 -6.322038 -2.039707 1.305514 -5.009277 -29.652528 -5.968368 12.013269 38.577734 -16.680316 1.821250 19.158340 -10.659192 4.716110 0.000000 0.000000 0.000000 6.237582 11.632450 -40.982543 17.077023 -26.959145 4.122220 20.703323 -40.109403 14.300093 0.000000 0.000000 0.000000 -7.125000 0.000000 0.000000 -4.607957 14.771508 -3.291676 0.000000 0.000000 0.000000 3.944477 6.397125 16.222336 -14.350840 -23.234056 -2.965136 -10.834639 27.520801 1.784868 0.000000 0.000000 0.000000 7.125000 0.000000 0.000000 12.564552 31.634324 4.196386
